<?xml version="1.0" encoding="UTF-8" standalone="no"?>
<!-- Created with Inkscape (http://www.inkscape.org/) -->

<svg
   version="1.1"
   id="svg1"
   width="650.00006"
   height="550"
   viewBox="0 0 650.00009 549.99998"
   sodipodi:docname="logo26.svg"
   inkscape:version="1.4.3 (0d15f75, 2025-12-25)"
   inkscape:export-filename="2_NEWCOLOR.png"
   inkscape:export-xdpi="96"
   inkscape:export-ydpi="96"
   inkscape:export-batch-name="HelioH2_Logo"
   inkscape:export-batch-path="/Users/gabriel/Desktop"
   xmlns:inkscape="http://www.inkscape.org/namespaces/inkscape"
   xmlns:sodipodi="http://sodipodi.sourceforge.net/DTD/sodipodi-0.dtd"
   xmlns:xlink="http://www.w3.org/1999/xlink"
   xmlns="http://www.w3.org/2000/svg"
   xmlns:svg="http://www.w3.org/2000/svg">
  <defs
     id="defs1">
    <linearGradient
       id="linearGradient1"
       inkscape:collect="always">
      <stop
         style="stop-color:#ffd600;stop-opacity:1;"
         offset="0"
         id="stop1" />
      <stop
         style="stop-color:#e6c200;stop-opacity:1;"
         offset="1"
         id="stop2" />
    </linearGradient>
    <linearGradient
       id="linearGradient144"
       inkscape:collect="always">
      <stop
         style="stop-color:#0057b2;stop-opacity:1;"
         offset="0.62473273"
         id="stop144" />
      <stop
         style="stop-color:#0057b2;stop-opacity:0;"
         offset="1"
         id="stop145" />
    </linearGradient>
    <linearGradient
       id="linearGradient142"
       inkscape:collect="always">
      <stop
         style="stop-color:#0057b2;stop-opacity:1;"
         offset="0.59134358"
         id="stop142" />
      <stop
         style="stop-color:#0057b2;stop-opacity:0;"
         offset="1"
         id="stop143" />
    </linearGradient>
    <linearGradient
       id="linearGradient140"
       inkscape:collect="always">
      <stop
         style="stop-color:#008235;stop-opacity:1;"
         offset="0.69187289"
         id="stop140" />
      <stop
         style="stop-color:#008235;stop-opacity:0;"
         offset="1"
         id="stop141" />
    </linearGradient>
    <linearGradient
       id="linearGradient138"
       inkscape:collect="always">
      <stop
         style="stop-color:#e6c200;stop-opacity:1;"
         offset="0.74789917"
         id="stop138" />
      <stop
         style="stop-color:#ffd600;stop-opacity:0;"
         offset="1"
         id="stop139" />
    </linearGradient>
    <linearGradient
       inkscape:collect="always"
       xlink:href="#linearGradient140"
       id="linearGradient6"
       gradientUnits="userSpaceOnUse"
       gradientTransform="matrix(0.98903199,0,0,0.97250692,-40.51194,-143.35391)"
       x1="-3553.8052"
       y1="-4854.793"
       x2="-3672.8052"
       y2="-5249.1968" />
    <linearGradient
       inkscape:collect="always"
       xlink:href="#linearGradient144"
       id="linearGradient7"
       gradientUnits="userSpaceOnUse"
       x1="-3901.5518"
       y1="-4855.9194"
       x2="-3674.5518"
       y2="-5254.5562" />
    <linearGradient
       inkscape:collect="always"
       xlink:href="#linearGradient142"
       id="linearGradient8"
       gradientUnits="userSpaceOnUse"
       x1="-3775.2986"
       y1="-4872.2598"
       x2="-3680.2986"
       y2="-5257.896" />
    <radialGradient
       inkscape:collect="always"
       xlink:href="#linearGradient1"
       id="radialGradient8"
       gradientUnits="userSpaceOnUse"
       gradientTransform="matrix(1,0,0,0.62514068,0,-1970.9676)"
       cx="-3673.3921"
       cy="-5257.8862"
       fx="-3673.3921"
       fy="-5257.8862"
       r="107.4081" />
    <linearGradient
       inkscape:collect="always"
       xlink:href="#linearGradient138"
       id="linearGradient9"
       gradientUnits="userSpaceOnUse"
       gradientTransform="translate(0.70710678,-0.35355339)"
       x1="-3690.0664"
       y1="-5076.4907"
       x2="-3690.0664"
       y2="-5626.0532" />
  </defs>
  <sodipodi:namedview
     id="namedview1"
     pagecolor="#ffffff"
     bordercolor="#000000"
     borderopacity="0.25"
     inkscape:showpageshadow="2"
     inkscape:pageopacity="0.0"
     inkscape:pagecheckerboard="0"
     inkscape:deskcolor="#d1d1d1"
     showguides="true"
     inkscape:zoom="0.70710678"
     inkscape:cx="3747.6659"
     inkscape:cy="1906.3599"
     inkscape:window-width="1920"
     inkscape:window-height="1021"
     inkscape:window-x="0"
     inkscape:window-y="268"
     inkscape:window-maximized="0"
     inkscape:current-layer="layer1"
     showgrid="false"
     inkscape:export-bgcolor="#ffffff00">
    <sodipodi:guide
       position="2.9993858e-06,294.1855"
       orientation="-1,0"
       id="guide43"
       inkscape:locked="false"
       inkscape:label=""
       inkscape:color="rgb(0,134,229)" />
    <sodipodi:guide
       position="650.00001,320.89254"
       orientation="-1,0"
       id="guide44"
       inkscape:locked="false"
       inkscape:label=""
       inkscape:color="rgb(0,134,229)" />
    <sodipodi:guide
       position="319.82813,650.00001"
       orientation="0,1"
       id="guide45"
       inkscape:locked="false"
       inkscape:label=""
       inkscape:color="rgb(0,134,229)" />
    <sodipodi:guide
       position="400.05079,258.02144"
       orientation="0,-1"
       id="guide46"
       inkscape:locked="false" />
    <sodipodi:guide
       position="50.000002,443.86127"
       orientation="-1,0"
       id="guide50"
       inkscape:locked="false"
       inkscape:label=""
       inkscape:color="rgb(0,134,229)" />
    <sodipodi:guide
       position="600.00001,511.13862"
       orientation="-1,0"
       id="guide51"
       inkscape:locked="false"
       inkscape:label=""
       inkscape:color="rgb(0,134,229)" />
    <sodipodi:guide
       position="78.695322,99.999996"
       orientation="0,1"
       id="guide52"
       inkscape:locked="false"
       inkscape:label=""
       inkscape:color="rgb(0,134,229)" />
    <sodipodi:guide
       position="102.45703,234.04688"
       orientation="0,-1"
       id="guide53"
       inkscape:locked="false" />
    <sodipodi:guide
       position="222.67969,208.96485"
       orientation="0,-1"
       id="guide54"
       inkscape:locked="false" />
    <inkscape:grid
       id="grid5"
       units="px"
       originx="-151.28516"
       originy="-46.03315"
       spacingx="1.0000001"
       spacingy="0.99999999"
       empcolor="#0099e5"
       empopacity="0.30196078"
       color="#0099e5"
       opacity="0.14901961"
       empspacing="5"
       enabled="true"
       visible="false" />
    <sodipodi:guide
       position="119.01172,189.19532"
       orientation="0,-1"
       id="guide8"
       inkscape:locked="false" />
    <sodipodi:guide
       position="118.5586,167.09374"
       orientation="0,-1"
       id="guide9"
       inkscape:locked="false" />
    <inkscape:page
       x="1.1433707e-15"
       y="0"
       width="650.00006"
       height="550"
       id="page74"
       margin="0"
       bleed="0"
       inkscape:export-filename="Page 2.svg"
       inkscape:export-xdpi="350"
       inkscape:export-ydpi="350" />
    <sodipodi:guide
       position="73.367202,122.91014"
       orientation="0,-1"
       id="guide149"
       inkscape:locked="false" />
    <sodipodi:guide
       position="860.00003,406.24999"
       orientation="-1,0"
       id="guide171"
       inkscape:locked="false"
       inkscape:label=""
       inkscape:color="rgb(0,134,229)" />
    <sodipodi:guide
       position="750.00001,-50.000008"
       orientation="0,1"
       id="guide34"
       inkscape:locked="false"
       inkscape:label=""
       inkscape:color="rgb(0,134,229)" />
    <sodipodi:guide
       position="760.00001,-31.662358"
       orientation="-1,0"
       id="guide35"
       inkscape:locked="false"
       inkscape:label=""
       inkscape:color="rgb(0,134,229)" />
    <sodipodi:guide
       position="750.00001,-36.788878"
       orientation="-1,0"
       id="guide36"
       inkscape:locked="false"
       inkscape:label=""
       inkscape:color="rgb(0,134,229)" />
    <sodipodi:guide
       position="1610.0221,-10.758511"
       orientation="-1,0"
       id="guide39"
       inkscape:locked="false"
       inkscape:label=""
       inkscape:color="rgb(0,134,229)" />
    <sodipodi:guide
       position="1620.0221,-11.951753"
       orientation="-1,0"
       id="guide40"
       inkscape:locked="false"
       inkscape:label=""
       inkscape:color="rgb(0,134,229)" />
    <sodipodi:guide
       position="2470.0339,-2.715171"
       orientation="-1,0"
       id="guide41"
       inkscape:locked="false"
       inkscape:label=""
       inkscape:color="rgb(0,134,229)" />
    <sodipodi:guide
       position="2480.0339,3.516207"
       orientation="-1,0"
       id="guide42"
       inkscape:locked="false"
       inkscape:label=""
       inkscape:color="rgb(0,134,229)" />
    <sodipodi:guide
       position="1720.0001,1406.195"
       orientation="-1,0"
       id="guide47"
       inkscape:locked="false"
       inkscape:label=""
       inkscape:color="rgb(0,134,229)" />
    <sodipodi:guide
       position="2580.0001,925.3625"
       orientation="-1,0"
       id="guide55"
       inkscape:locked="false"
       inkscape:label=""
       inkscape:color="rgb(0,134,229)" />
    <sodipodi:guide
       position="1651.5036,-850.00011"
       orientation="0,1"
       id="guide56"
       inkscape:locked="false"
       inkscape:label=""
       inkscape:color="rgb(0,134,229)" />
    <sodipodi:guide
       position="729.78985,-1650.0031"
       orientation="0,1"
       id="guide57"
       inkscape:locked="false"
       inkscape:label=""
       inkscape:color="rgb(0,134,229)" />
    <sodipodi:guide
       position="543.00004,-2450.0006"
       orientation="0,1"
       id="guide233"
       inkscape:locked="false"
       inkscape:label=""
       inkscape:color="rgb(0,134,229)" />
    <sodipodi:guide
       position="2369.6137,-1382.3599"
       orientation="1,0"
       id="guide1"
       inkscape:locked="false" />
    <sodipodi:guide
       position="2063.4972,-1050.0051"
       orientation="0,-1"
       id="guide2"
       inkscape:locked="false" />
    <sodipodi:guide
       position="2355.5339,-1600.1246"
       orientation="0,-1"
       id="guide3"
       inkscape:locked="false" />
  </sodipodi:namedview>
  <g
     id="g158"
     inkscape:label="Base"
     transform="translate(760.03934,-100.25)"
     inkscape:highlight-color="#ff5946"
     sodipodi:insensitive="true">
    <g
       id="g177"
       inkscape:highlight-color="#ff5946"
       inkscape:label="HelioH2"
       style="display:inline"
       transform="translate(-860.24439,-0.0212)"
       sodipodi:insensitive="true">
      <path
         id="text177"
         style="font-weight:bold;font-size:168.667px;line-height:0px;font-family:'Work Sans';-inkscape-font-specification:'Work Sans, Bold';fill:#0057b2;stroke-width:15.1181;stroke-linecap:round;stroke-linejoin:bevel"
         d="m 1317.918,515.92883 c -5.8472,0 -10.1197,1.12415 -12.8184,3.37305 -2.5862,2.13645 -3.8808,5.62386 -3.8808,10.45898 0,4.72268 1.2946,8.20814 3.8808,10.45703 2.6987,2.13646 6.9712,3.20313 12.8184,3.20313 5.7346,0 9.9517,-1.06667 12.6504,-3.20313 2.6986,-2.24889 4.0468,-5.73435 4.0468,-10.45703 0,-4.83512 -1.3482,-8.32253 -4.0468,-10.45898 -2.6987,-2.2489 -6.9158,-3.37305 -12.6504,-3.37305 z m -78.8282,0.0156 v 84.44031 c 0,9.44535 2.0243,16.24775 6.0723,20.4082 4.048,4.16045 10.5689,6.24219 19.5645,6.24219 3.1484,0 6.3543,-0.39453 9.6152,-1.18164 3.2609,-0.78712 5.9018,-1.79827 7.9258,-3.03516 l 1.8554,-17.20508 c -1.5742,0.44977 -2.9224,0.78683 -4.0468,1.01172 -1.1245,0.22489 -2.5302,0.33789 -4.2168,0.33789 -2.9236,0 -5.0033,-0.7871 -6.2403,-2.36133 -1.2368,-1.57422 -1.8554,-4.21705 -1.8554,-7.92773 v -80.72937 z m -229.1289,-0.0109 0.031,111.16016 28.9785,-0.004 V 582.9323 l 42.5039,-0.0195 v 44.17695 h 29.0117 V 515.93359 h -29.0117 v 44.86603 h -42.5039 v -44.86603 z m 167.1133,24.81411 c -8.6582,10e-6 -16.3607,1.74273 -23.1074,5.22852 -6.6343,3.48579 -11.8069,7.1641 -15.5176,13.68589 -3.7106,6.52179 -5.5664,14.39282 -5.5664,23.61328 0,9.22047 1.8558,17.0915 5.5664,23.61328 3.7107,6.5218 8.9388,11.52398 15.6856,15.00977 6.859,3.48578 14.9561,5.19141 24.289,5.19141 5.8472,0 11.4124,-0.80552 16.6973,-2.49219 5.3974,-1.68667 10.007,-4.16098 13.8301,-7.42188 3.9356,-3.37334 6.6914,-7.47738 8.2656,-12.3125 l -22.9395,-7.58984 c -1.2368,3.036 -3.1481,5.39731 -5.7343,7.08398 -2.4738,1.68667 -5.8462,2.53125 -10.1192,2.53125 -3.8231,0 -7.0845,-0.73158 -9.7832,-2.19336 -2.6986,-1.57422 -4.7784,-4.04853 -6.2402,-7.42187 -0.8121,-1.93655 -1.3989,-4.18485 -1.7598,-6.7461 h 57.5879 c 0.2249,-1.34933 0.3935,-3.03654 0.5059,-5.06054 0.1124,-2.024 0.1699,-4.04826 0.1699,-6.07227 0,-7.75868 -1.6316,-14.6166 -4.8926,-20.57617 -3.2608,-6.07201 -8.0391,-9.4688 -14.3359,-12.84214 -6.1845,-3.48579 -13.7184,-5.22852 -22.6016,-5.22852 z m 219.8183,0.25273 c -8.6582,10e-6 -16.3607,1.74273 -23.1074,5.22852 -6.7466,3.37334 -12.0323,8.37749 -15.8554,15.01172 -3.7107,6.52179 -5.5665,12.77129 -5.5665,21.99175 0,9.22047 1.8558,17.14702 5.5665,23.78125 3.8231,6.52179 9.1088,11.52593 15.8554,15.01172 6.7467,3.37334 14.4492,5.06055 23.1074,5.06055 8.8832,0 16.6412,-1.68721 23.2754,-5.06055 6.7468,-3.48579 11.9749,-8.48993 15.6856,-15.01172 3.8231,-6.63423 5.7344,-14.56078 5.7344,-23.78125 0,-9.22046 -1.9113,-15.46996 -5.7344,-21.99175 -3.7107,-6.63423 -8.9388,-11.63838 -15.6856,-15.01172 -6.6342,-3.48579 -14.3922,-5.22852 -23.2754,-5.22852 z m -93.3124,12.20379 v 73.88172 h 28.6738 v -73.88172 z m -126.5059,7.6138 c 5.06,0 8.7695,1.80021 11.1309,5.39844 1.7907,2.60467 2.9333,4.70682 3.4277,8.96127 h -30.8262 c 0.3035,-1.93167 0.7217,-3.6744 1.2559,-5.22851 1.3493,-3.59823 3.2606,-4.91328 5.7344,-6.59995 2.5862,-1.68667 5.6791,-2.53125 9.2773,-2.53125 z m 219.8183,0.59062 c 3.3734,0 6.2403,0.7871 8.6016,2.36133 2.3613,1.57422 4.1596,4.10406 5.3965,7.58984 1.2369,3.48579 1.8555,6.36282 1.8555,11.87261 0,5.50979 -0.6186,10.00641 -1.8555,13.49219 -1.2369,3.37334 -3.0352,5.90317 -5.3965,7.58984 -2.3613,1.57423 -5.2282,2.36133 -8.6016,2.36133 -3.2608,0 -6.0722,-0.7871 -8.4336,-2.36133 -2.3613,-1.68667 -4.1615,-4.2165 -5.3984,-7.58984 -1.2369,-3.48578 -1.8555,-7.9824 -1.8555,-13.49219 0,-5.50979 0.6186,-8.38682 1.8555,-11.87261 1.2369,-3.48578 3.0371,-6.01562 5.3984,-7.58984 2.3614,-1.57423 5.1728,-2.36133 8.4336,-2.36133 z"
         transform="translate(-860.03933,0.25)"
         sodipodi:nodetypes="scscscscscssssccsssscccccccccccccccscssscscccccsccccssccssccsccsccsccscccccscccccsssssccsccssss"
         inkscape:label="Helio" />
      <path
         id="text177-7"
         style="font-weight:bold;font-size:168.667px;line-height:0px;font-family:'Work Sans';-inkscape-font-specification:'Work Sans, Bold';fill:#008235;stroke-width:15.1181;stroke-linecap:round;stroke-linejoin:bevel"
         d="m 1459.4668,515.94141 v 111.14453 h 29.0098 v -44.18555 h 42.5059 v 44.18555 h 29.0097 V 515.94141 h -29.0097 v 44.86132 h -42.5059 v -44.86132 z"
         transform="translate(-860.03933,0.25)"
         sodipodi:nodetypes="ccccccccccccc"
         inkscape:label="H" />
      <path
         style="font-weight:bold;font-size:61.4797px;line-height:0px;font-family:'Work Sans';-inkscape-font-specification:'Work Sans, Bold';fill:#008235;stroke-width:5.5106;stroke-linecap:round;stroke-linejoin:bevel"
         d="m 1564.8242,649.64252 v -6.76277 q 5.2257,-3.25842 8.9145,-6.08649 3.6888,-2.82807 5.9635,-5.34873 2.3363,-2.52067 3.4429,-4.79542 1.1066,-2.27475 1.1066,-4.42654 0,-2.33623 -1.414,-3.87322 -1.3525,-1.59847 -4.0577,-1.59847 -2.8895,0 -4.488,2.15179 -1.5984,2.09031 -1.7214,6.14797 l -9.0375,-2.76659 q 0.1229,-4.5495 2.1518,-7.62348 2.0903,-3.07399 5.6561,-4.61098 3.5658,-1.59847 8.1153,-1.59847 3.9962,0 6.8858,1.16811 2.951,1.10664 4.7954,3.01251 1.8444,1.84439 2.7051,4.18062 0.9222,2.27475 0.9222,4.67246 0,3.9347 -2.0289,7.37756 -2.0288,3.38138 -5.902,6.57833 -3.8118,3.13546 -9.2834,6.33241 v 0.0615 q 1.0451,-0.0615 2.4591,-0.12296 1.4141,-0.0615 2.9511,-0.0615 1.537,-0.0615 2.7666,-0.0615 h 9.5293 v 8.05384 z"
         id="text177-7-8"
         transform="translate(-860.03933,0.25)"
         aria-label="2"
         inkscape:label="2" />
    </g>
    <g
       id="g6"
       style="display:inline"
       transform="translate(3254.4029,5604.6503)"
       inkscape:label="Image"
       inkscape:highlight-color="#ff5946">
      <path
         id="path2"
         style="display:inline;opacity:1;fill:url(#linearGradient6);stroke:none;stroke-width:0.490367;stroke-dasharray:none;stroke-opacity:1"
         inkscape:label="topLeaf"
         d="m -3693.644,-5181.0378 c 129.3558,40.2537 205.7107,68.3157 318.814,2.8811 -77.2944,-47.1475 -225.3734,-47.9214 -318.814,-2.8811 z"
         sodipodi:nodetypes="ccc" />
      <path
         style="display:inline;opacity:1;fill:url(#linearGradient7);stroke:none;stroke-width:0.5;stroke-dasharray:none;stroke-opacity:1"
         d="m -3927.2532,-5176.1653 c -33.6082,6.4136 -60.9593,22.2445 -87.189,43.9836 27.9135,-6.3793 94.1826,-15.7955 154.7424,-8.407 60.5598,7.3885 86.9113,28.0769 86.9113,28.0769 l 160.0553,-0.473 c -17.7978,-4.3722 -72.8838,-23.0084 -104.6275,-33.7244 -31.7436,-10.716 -50.4764,-17.1845 -76.4432,-22.9953 -46.3659,-10.3757 -89.7035,-14.809 -133.4493,-6.4608 z"
         id="path3"
         sodipodi:nodetypes="sczcczss"
         inkscape:label="bottomLeaf"
         transform="translate(-1.8e-5)" />
      <path
         style="display:inline;opacity:1;fill:url(#linearGradient8);stroke:none;stroke-width:0.5;stroke-dasharray:none;stroke-opacity:1"
         d="m -3964.913,-5172.5821 c 75.8562,-31.8861 169.9482,-7.7428 246.556,17.728 76.6078,25.4708 111.1969,41.4615 171.6593,42.1687 60.496,0.7075 115.2568,-3.8151 181.8475,-59.3582 -37.232,22.0224 -80.3569,41.0426 -139.8725,41.5242 -59.5156,0.4816 -108.523,-14.2198 -194.9614,-44.2853 -86.4384,-30.0655 -195.85,-41.5854 -265.2289,2.2226 z"
         id="path4"
         sodipodi:nodetypes="czsczzc"
         inkscape:label="mediumLeaf"
         transform="translate(-1.8e-5)" />
      <path
         style="display:inline;opacity:1;fill:url(#radialGradient8);stroke:none;stroke-width:0.5;stroke-dasharray:none;stroke-opacity:1"
         d="m -3781.0503,-5202.9913 c 0.1591,-0.5272 39.2181,4.1496 74.7994,18.5003 58.7224,-30.345 104.691,-33.7557 145.5168,-36.7717 0,0 -15.9871,-103.9033 -113.688,-103.7685 -102.872,0.1418 -106.6282,122.0399 -106.6282,122.0399 z"
         id="path5"
         sodipodi:nodetypes="cccsc"
         inkscape:label="sun"
         transform="matrix(1.0503134,0,0,1.030188,185.40233,156.1562)" />
      <path
         id="path6"
         style="display:inline;fill:url(#linearGradient9);stroke:none;stroke-width:0.5;stroke-dasharray:none;stroke-opacity:1"
         d="m -3901.4038,-5252.4551 c 0,3.3328 -2.7017,6.0345 -6.0345,6.0345 -3.3327,0 -6.0344,-2.7018 -6.0344,-6.0345 0,-3.3327 2.7017,-6.0344 6.0344,-6.0344 3.3327,0 6.0345,2.7017 6.0345,6.0344 z m 15.4297,-49.0241 c 0,3.3327 -2.7017,6.0345 -6.0344,6.0345 -3.3328,0 -6.0345,-2.7017 -6.0345,-6.0345 0,-3.3327 2.7018,-6.0344 6.0345,-6.0344 3.3327,0 6.0344,2.7017 6.0344,6.0344 z m 38.4072,-59.8099 c 0,3.3327 -2.7017,6.0345 -6.0344,6.0345 -3.3328,0 -6.0345,-2.7017 -6.0345,-6.0345 0,-3.3327 2.7018,-6.0344 6.0345,-6.0344 3.3327,0 6.0344,2.7017 6.0344,6.0344 z m 36.7041,-35.0921 c 0,3.3328 -2.7017,6.0345 -6.0345,6.0345 -3.3327,0 -6.0344,-2.7018 -6.0344,-6.0345 0,-3.3327 2.7017,-6.0344 6.0344,-6.0344 3.3327,0 6.0345,2.7017 6.0345,6.0344 z m 60.9499,-36.1787 c 0,3.3327 -2.7018,6.0344 -6.0345,6.0344 -3.3327,0 -6.0344,-2.7017 -6.0344,-6.0344 0,-3.3327 2.7017,-6.0345 6.0344,-6.0345 3.3328,0 6.0345,2.7017 6.0345,6.0345 z m 49.6117,-12.6229 c 0,3.3328 -2.7017,6.0345 -6.0345,6.0345 -3.3327,0 -6.0344,-2.7018 -6.0344,-6.0345 0,-3.3327 2.7017,-6.0344 6.0344,-6.0344 3.3327,0 6.0345,2.7017 6.0345,6.0344 z m 69.3898,-0.6397 c 0,3.3327 -2.7018,6.0344 -6.0345,6.0344 -3.3327,0 -6.0344,-2.7017 -6.0344,-6.0344 0,-3.3327 2.7017,-6.0344 6.0344,-6.0344 3.3327,0 6.0345,2.7017 6.0345,6.0344 z m 111.092,48.5204 c 0,3.3327 -2.7017,6.0344 -6.0344,6.0344 -3.3327,0 -6.0345,-2.7017 -6.0345,-6.0344 0,-3.3327 2.7018,-6.0344 6.0345,-6.0344 3.3327,0 6.0344,2.7017 6.0344,6.0344 z m -60.0621,-34.5275 c 0,3.3327 -2.7018,6.0344 -6.0345,6.0344 -3.3327,0 -6.0344,-2.7017 -6.0344,-6.0344 0,-3.3327 2.7017,-6.0344 6.0344,-6.0344 3.3327,0 6.0345,2.7017 6.0345,6.0344 z m 96.3531,70.956 c 0,3.3327 -2.7017,6.0345 -6.0344,6.0345 -3.3328,0 -6.0345,-2.7017 -6.0345,-6.0345 0,-3.3327 2.7018,-6.0344 6.0345,-6.0344 3.3327,0 6.0344,2.7017 6.0344,6.0344 z m 35.4354,59.8539 c 0,3.3327 -2.7017,6.0344 -6.0344,6.0344 -3.3327,0 -6.0345,-2.7017 -6.0345,-6.0344 0,-3.3327 2.7018,-6.0344 6.0345,-6.0344 3.3327,0 6.0344,2.7017 6.0344,6.0344 z m 12.1703,50.2863 c 0,3.3327 -2.7017,6.0345 -6.0344,6.0345 -3.3328,0 -6.0345,-2.7017 -6.0345,-6.0345 0,-3.3327 2.7018,-6.0344 6.0345,-6.0344 3.3327,0 6.0344,2.7017 6.0344,6.0344 z m 10.0579,-100.1574 c 0,4.1346 -3.3517,7.4863 -7.4862,7.4863 -4.1346,0 -7.4863,-3.3517 -7.4862,-7.4863 0,-4.1345 3.3517,-7.4862 7.4862,-7.4862 4.1345,0 7.4862,3.3517 7.4862,7.4862 z m -103.4155,-98.1509 c 0,4.1345 -3.3518,7.4862 -7.4863,7.4862 -4.1345,0 -7.4862,-3.3517 -7.4862,-7.4862 0,-4.1345 3.3517,-7.4862 7.4862,-7.4862 4.1345,0 7.4863,3.3517 7.4863,7.4862 z m -134.3137,-36.6809 c 0,4.1345 -3.3517,7.4863 -7.4862,7.4863 -4.1346,0 -7.4863,-3.3517 -7.4863,-7.4863 0,-4.1345 3.3518,-7.4862 7.4863,-7.4862 4.1345,0 7.4862,3.3517 7.4862,7.4862 z m -241.1555,134.7878 c 0,4.1345 -3.3517,7.4862 -7.4862,7.4862 -4.1345,0 -7.4863,-3.3517 -7.4863,-7.4862 0,-4.1345 3.3518,-7.4862 7.4863,-7.4862 4.1345,0 7.4862,3.3517 7.4862,7.4862 z m -33.2083,133.5314 c 0,4.1345 -3.3517,7.4862 -7.4862,7.4862 -4.1346,0 -7.4863,-3.3517 -7.4863,-7.4862 0,-4.1345 3.3517,-7.4862 7.4863,-7.4862 4.1345,0 7.4862,3.3517 7.4862,7.4862 z m 134.2969,-231.7043 c 0,4.1345 -3.3518,7.4862 -7.4863,7.4862 -4.1345,0 -7.4862,-3.3517 -7.4862,-7.4862 0,-4.1345 3.3517,-7.4863 7.4862,-7.4863 4.1346,0 7.4863,3.3517 7.4863,7.4863 z m 132.6942,-55.2908 c -10.3306,-1e-4 -18.7052,8.3745 -18.7051,18.7051 1e-4,7.705 4.7249,14.6217 11.9024,17.4238 l -0.1582,112.707 c -7.7881,0.1141 -15.7062,0.9232 -24.0801,2.4043 l -8.9746,-35.0058 15.1523,-25.1172 -3.0879,-18.7403 c 4.8133,-2.6592 7.7965,-7.69 7.7969,-13.1484 7e-4,-8.3168 -6.8072,-15.0592 -15.2051,-15.0586 -8.3971,5e-4 -15.2038,6.7426 -15.2031,15.0586 0,6.9424 4.7929,12.9848 11.6035,14.6289 l 1.6406,15.3906 -15.1543,24.9121 9.6582,39.7891 c -7.8849,2.3424 -15.6343,5.7571 -23.3242,9.6602 l -16.8496,-30.1446 14.1172,-35.498 -6.2246,-14.7305 c 3.3365,-2.86 5.2538,-7.0145 5.2539,-11.3847 -3e-4,-8.3161 -6.8079,-15.0573 -15.2051,-15.0567 -8.3964,5e-4 -15.2028,6.7414 -15.2031,15.0567 -1e-4,8.0112 6.3338,14.6198 14.4121,15.0371 l 5.3418,12.3242 -10.1719,21.7969 -35.7949,-52.9825 c 3.2465,-3.4663 5.0529,-8.0378 5.0527,-12.7871 0,-10.3298 -8.3752,-18.7032 -18.705,-18.7031 -10.3298,-1e-4 -18.7041,8.3733 -18.7051,18.7031 -1e-4,10.3306 8.3745,18.7052 18.7051,18.7051 1.1015,-1e-4 2.2008,-0.098 3.2851,-0.291 l 60.7559,96.293 c -7.2052,4.7158 -12.895,10.3768 -18.5703,16.0488 l -26.125,-25.959 0.207,-28.0254 -12.3984,-16.2812 c 1.3685,-2.3104 2.0899,-4.9406 2.0898,-7.6192 -4e-4,-8.3153 -6.8068,-15.0561 -15.2031,-15.0566 -8.3971,-6e-4 -15.2047,6.7406 -15.2051,15.0566 3e-4,8.3161 6.8079,15.0573 15.2051,15.0567 1.3018,2e-4 2.5982,-0.1653 3.8574,-0.4922 l 10.2383,12.0351 -1.8692,29.6856 31.7422,30.6289 c -5.1494,6.431 -9.38,13.2068 -12.9648,20.2246 l -36.2149,-20.7539 -3.7363,-36.5352 -13.2441,-9.7246 c 0.6074,-1.6519 0.9181,-3.3963 0.9179,-5.1543 7e-4,-8.316 -6.806,-15.0581 -15.2031,-15.0586 -8.3979,-6e-4 -15.2058,6.7418 -15.2051,15.0586 3e-4,8.3161 6.8079,15.0573 15.2051,15.0567 2.4774,1e-4 4.9173,-0.5993 7.1074,-1.7461 l 9.834,6.9648 2.9063,24.4961 -60.2032,-31.0078 c 0.2004,-1.104 0.3011,-2.2237 0.3008,-3.3457 1e-4,-10.3306 -8.3745,-18.7052 -18.7051,-18.7051 -10.3306,-10e-5 -18.7051,8.3745 -18.705,18.7051 -10e-5,10.3306 8.3744,18.7052 18.705,18.7051 4.5602,-4e-4 12.3809,-4.6856 12.3809,-4.6856 v 0 l 108.7598,58.2754 c -3.0967,7.3475 -6.0041,14.7704 -8.1309,22.5059 l -40.5274,-11.4551 -14.8437,-25.7422 -22.2481,-7.2266 c 0.018,-0.2978 0.027,-0.5961 0.027,-0.8945 -4e-4,-8.316 -6.808,-15.0572 -15.2051,-15.0566 -8.3963,5e-4 -15.2027,6.7413 -15.2031,15.0566 3e-4,8.3153 6.8067,15.0562 15.2031,15.0567 3.9089,4e-4 7.6677,-1.4902 10.4961,-4.1622 l 18.8086,5.8516 16.5293,26.9785 44.1778,11.6934 c -1.8403,7.7214 -3.255,15.4446 -4.3125,23.166 l -41.1114,-0.2949 -22.8339,-28.959 -22.2305,-2.7793 c -1.2553,-7.2247 -7.582,-12.5042 -14.9844,-12.5039 -8.3979,-6e-4 -15.2058,6.7418 -15.2051,15.0586 4e-4,8.316 6.808,15.0572 15.2051,15.0566 5.525,-3e-4 10.615,-2.9689 13.2949,-7.7539 l 19.041,2.3672 15.129,19.6836 -67.488,-0.066 c -2.4043,-7.8644 -9.6631,-13.2359 -17.8868,-13.2363 -10.3306,-1e-4 -18.7052,8.3745 -18.705,18.7051 9e-4,10.3298 8.3752,18.7032 18.705,18.7031 8.1978,3e-4 15.4405,-5.3376 17.8672,-13.168 l 119.6082,0.2804 -0.178,4.5186 12.8732,1.5218 c 0.3028,-3.6619 0.8764,-13.2948 1.3665,-16.8722 8.8666,-64.7247 48.25,-114.7135 112.9275,-116.8277 39.1502,-1.2798 66.8355,9.9888 86.3378,25.4896 38.5364,30.6293 49.7185,91.3949 49.6745,90.9113 l 12.5947,-0.4871 c -0.513,-2.9098 -6.1525,-20.8448 -6.6656,-23.5622 l 39.7872,-9.709 24.4961,14.7383 18.9804,-2.2695 c 2.4939,5.3118 7.8721,8.7091 13.7871,8.7089 8.3971,-5e-4 15.2039,-6.7425 15.2032,-15.0585 -3e-4,-8.3153 -6.8068,-15.0562 -15.2032,-15.0567 -6.8313,0 -12.8239,4.5123 -14.6504,11.0313 l -16.25,1.8496 -24.7031,-15.1543 -44.293,10.2578 c -2.2321,-7.4981 -5.2724,-14.8342 -8.4726,-22.1387 l 35.3281,-18.6347 32.1777,13.9082 18.3028,-5.3457 c 2.8096,2.5729 6.4955,4.0019 10.3222,4.0019 8.3972,-5e-4 15.2039,-6.7425 15.2032,-15.0586 -4e-4,-8.3153 -6.8068,-15.0561 -15.2032,-15.0566 -8.3971,-5e-4 -15.2046,6.7406 -15.205,15.0566 0,0.2143 0,0.4285 0.014,0.6426 l -13.6426,3.9258 -19.9277,-10.795 58.2224,-29.0643 c 3.2814,2.5483 7.3179,3.9316 11.4727,3.9316 10.3305,10e-5 18.7051,-8.3745 18.705,-18.7051 1e-4,-10.3306 -8.3745,-18.7051 -18.705,-18.7051 -10.3306,0 -18.7053,8.3745 -18.7051,18.7051 1e-4,1.9007 2.542,4.7196 0.8594,5.6035 l -104.7987,55.0488 c -3.465,-6.4696 -7.8261,-12.8491 -13.248,-19.1231 l 25.5098,-26.5468 30.3066,0.623 16.1211,-12.4004 c 2.326,1.3444 4.9709,2.0529 7.6641,2.0528 8.3964,-5e-4 15.2028,-6.7414 15.2031,-15.0567 -4e-4,-8.3153 -6.8068,-15.0561 -15.2031,-15.0566 -8.3971,-6e-4 -15.2047,6.7406 -15.2051,15.0566 0,1.3001 0.17,2.5947 0.5058,3.8516 l -13.8593,10.7558 -29.0625,-1.2441 -30.0489,28.791 c -5.5347,-5.7765 -11.9627,-10.8816 -19.0625,-15.4844 l 18.1797,-31.7832 37.1582,-3.7363 10.0801,-13.373 c 1.6158,0.5602 3.3155,0.8461 5.0274,0.8457 8.3964,-5e-4 15.2028,-6.7414 15.2031,-15.0567 -4e-4,-8.3153 -6.8068,-15.0561 -15.2031,-15.0566 -8.3971,-6e-4 -15.2047,6.7406 -15.2051,15.0566 0,2.7094 0.7382,5.3686 2.1367,7.6973 l -8.6836,10.5449 -24.4961,1.6602 31.0254,-53.5684 c 1.3815,0.3193 2.7949,0.4805 4.2129,0.4805 10.3306,1e-4 18.7052,-8.3745 18.7051,-18.7051 0,-10.3298 -8.3753,-18.7032 -18.7051,-18.7031 -10.3298,-1e-4 -18.7041,8.3733 -18.7051,18.7031 3e-4,4.5816 1.6822,9.0038 4.7266,12.4277 l -55.8262,96.4727 c -7.23,-3.7388 -14.8263,-6.921 -23.0313,-9.2949 l 8.6075,-34.6621 26.7793,-14.1172 6.8047,-18.3555 c 0.5314,0.055 1.0653,0.082 1.5996,0.082 8.3963,-5e-4 15.2027,-6.7413 15.2031,-15.0566 -3e-4,-8.3153 -6.8067,-15.0562 -15.2031,-15.0567 -8.3972,-6e-4 -15.2048,6.7406 -15.2051,15.0567 4e-4,3.4536 1.1995,6.8022 3.3965,9.4843 l -5.7305,16.1661 -28.4395,14.9453 -9.1582,38.6816 c -8.1247,-1.5655 -16.2483,-2.6239 -24.373,-3.0156 l -0.9297,-34.834 30.1016,-22.8359 2.8886,-17.9532 c 6.8657,-1.6022 11.717,-7.6706 11.7168,-14.6562 7e-4,-8.316 -6.806,-15.0581 -15.2031,-15.0586 -8.3979,-6e-4 -15.2058,6.7418 -15.2051,15.0586 5e-4,5.2456 2.7575,10.1128 7.2774,12.8476 l -1.0235,12.2891 -20.3457,14.3223 0.209,-61.4532 c 8.0828,-2.2581 13.6722,-9.6233 13.6719,-18.0156 10e-5,-10.3298 -8.3733,-18.7041 -18.7031,-18.7051 z"
         inkscape:label="network-rays"
         sodipodi:nodetypes="sssssssssssssssssssssssssssssssssssssssssssssssssssssssssssssssssssssssssssssssssssssssssscscccccccsccccccccccscccccccccccccccsscccccccccccsccccccccccscccccccsccccccccccccscccccccccccssscccccccccccccccccccssccccscssscccccccssccccccccccssccccccccccccccccsccccccccccssccccccc" />
    </g>
  </g>
</svg>
